<svg id="svg" xmlns="http://www.w3.org/2000/svg" xmlns:xlink="http://www.w3.org/1999/xlink" width="500" height="467.22125651850007" viewBox="0, 0, 500,467.22125651850007"><g id="svgg"><path id="path0" d="M464.862 2.857 C 456.360 4.417,441.302 7.177,431.401 8.989 C 421.499 10.801,411.539 12.634,409.269 13.061 L 405.140 13.838 405.140 14.405 C 405.140 15.347,401.706 12.764,439.898 40.540 C 451.499 48.977,451.655 49.084,452.640 49.305 C 453.591 49.518,454.788 49.326,470.884 46.382 C 490.561 42.784,490.004 42.902,490.538 42.207 C 490.920 41.709,490.927 41.575,490.682 39.591 C 490.304 36.538,484.518 4.793,483.726 1.428 C 483.243 -0.628,484.278 -0.706,464.862 2.857 M367.830 20.575 C 367.625 20.604,362.708 21.492,356.903 22.550 C 351.099 23.608,345.753 24.583,345.023 24.715 C 342.874 25.106,342.190 25.423,342.190 26.026 C 342.190 26.519,342.271 26.609,343.824 27.839 C 344.717 28.547,382.241 55.898,387.533 59.698 C 389.001 60.753,389.350 60.889,390.551 60.879 C 391.995 60.866,413.392 56.949,416.355 56.154 L 417.583 55.825 417.518 55.321 C 417.463 54.897,417.328 54.705,416.671 54.105 C 415.731 53.249,371.667 21.166,370.882 20.766 C 370.341 20.491,369.033 20.409,367.830 20.575 M304.507 32.151 C 303.688 32.280,299.050 33.114,294.202 34.004 C 289.353 34.893,284.277 35.821,282.922 36.066 C 279.263 36.725,278.659 37.234,279.954 38.566 C 280.306 38.929,318.187 66.599,324.696 71.249 C 325.917 72.121,326.561 72.386,327.453 72.386 C 328.809 72.386,353.929 67.719,354.327 67.392 C 354.697 67.090,354.512 66.259,353.955 65.719 C 353.277 65.063,308.823 32.724,308.041 32.318 C 307.251 31.908,306.331 31.865,304.507 32.151 M241.743 43.517 C 241.299 43.611,236.327 44.528,230.693 45.556 C 220.907 47.342,216.784 48.180,216.445 48.453 C 215.763 49.002,216.521 49.822,220.172 52.481 C 264.017 84.414,262.807 83.549,263.940 83.762 C 264.735 83.911,266.704 83.598,278.547 81.441 C 290.321 79.297,290.503 79.259,291.315 78.756 C 292.258 78.171,291.626 77.550,285.626 73.169 C 267.275 59.771,245.426 43.934,244.971 43.702 C 244.281 43.348,242.917 43.270,241.743 43.517 M178.545 55.081 C 177.367 55.278,160.949 58.266,157.917 58.836 C 153.242 59.714,152.610 60.121,153.972 61.377 C 154.961 62.290,195.010 91.600,199.173 94.457 C 200.902 95.644,200.673 95.657,210.765 93.804 C 229.742 90.320,228.706 90.563,228.706 89.591 C 228.706 88.973,230.107 90.024,203.863 70.935 C 186.568 58.355,182.071 55.139,181.614 55.024 C 180.884 54.840,179.878 54.858,178.545 55.081 M114.763 66.735 C 113.794 66.892,112.732 67.082,112.404 67.159 C 111.836 67.293,102.214 69.049,40.601 80.266 C -1.405 87.914,0.788 87.492,0.232 88.047 C -0.495 88.774,0.177 92.646,5.884 120.623 C 7.137 126.762,7.086 125.470,6.957 147.691 C 6.892 158.917,6.856 158.415,7.746 158.902 C 8.234 159.169,151.564 159.314,153.115 159.049 L 153.944 158.908 155.908 156.898 C 158.825 153.912,185.044 126.286,185.473 125.745 C 185.984 125.102,186.095 124.455,185.752 124.112 L 185.491 123.852 119.223 123.788 C 74.810 123.746,52.840 123.684,52.605 123.599 L 52.254 123.473 52.518 123.138 C 53.086 122.416,51.469 122.725,108.890 112.365 C 135.716 107.526,159.823 103.090,164.139 102.200 C 166.466 101.720,166.320 101.092,163.342 98.776 C 162.316 97.977,147.425 87.116,130.991 75.179 C 125.903 71.484,121.232 68.087,120.609 67.631 C 118.762 66.276,118.175 66.186,114.763 66.735 M225.007 123.912 L 222.735 123.993 221.671 125.040 C 220.685 126.010,193.271 154.807,191.674 156.549 C 190.370 157.972,190.275 158.597,191.307 158.967 C 191.998 159.215,218.941 159.288,219.995 159.045 C 220.759 158.869,221.138 158.528,224.589 154.901 C 253.493 124.520,252.668 125.406,252.669 124.698 C 252.670 123.993,252.561 123.962,249.794 123.872 C 246.682 123.771,228.120 123.801,225.007 123.912 M290.040 123.878 C 289.387 123.948,288.396 124.954,272.702 141.482 C 255.953 159.120,257.512 157.408,257.512 158.171 C 257.512 159.195,256.261 159.109,271.868 159.147 C 285.661 159.180,285.821 159.178,286.572 158.925 C 288.139 158.397,287.635 158.875,296.579 149.429 C 300.199 145.605,306.670 138.788,310.958 134.281 C 315.246 129.774,318.915 125.869,319.112 125.602 C 319.719 124.778,319.582 124.095,318.773 123.908 C 318.318 123.802,291.006 123.774,290.040 123.878 M355.918 124.321 C 355.581 124.609,349.940 130.488,343.382 137.385 C 336.824 144.282,330.006 151.453,328.231 153.321 C 323.984 157.787,323.804 158.041,324.375 158.756 L 324.660 159.113 339.105 159.113 L 353.551 159.113 354.048 158.845 C 354.756 158.461,357.163 155.954,384.729 126.893 C 386.028 125.524,386.396 124.753,386.027 124.169 C 385.818 123.840,384.542 123.810,370.499 123.804 L 356.531 123.798 355.918 124.321 M423.477 123.916 C 422.898 124.090,421.902 124.942,420.404 126.546 C 419.623 127.382,416.163 131.030,412.714 134.653 C 389.325 159.226,390.732 157.686,390.932 158.483 C 391.099 159.145,390.356 159.111,405.584 159.147 L 419.771 159.180 420.493 158.910 C 421.419 158.563,421.059 158.926,434.447 144.835 C 440.417 138.552,446.776 131.861,448.579 129.966 C 453.145 125.168,453.389 124.808,452.561 124.111 L 452.179 123.789 438.003 123.800 C 430.206 123.806,423.669 123.858,423.477 123.916 M490.325 123.878 C 489.741 123.953,488.816 124.834,483.964 129.938 C 479.980 134.129,461.998 153.058,459.840 155.332 C 457.690 157.599,457.320 158.269,457.897 158.846 L 458.164 159.113 478.163 159.146 C 491.533 159.168,498.319 159.136,498.635 159.051 C 500.067 158.666,500.011 159.438,499.971 140.524 C 499.935 123.483,499.982 124.488,499.200 124.059 C 498.830 123.857,491.633 123.709,490.325 123.878 M8.432 170.091 C 7.057 170.284,6.818 170.781,6.749 173.578 C 6.688 176.078,6.339 204.353,6.300 209.958 C 6.268 214.458,6.294 214.622,7.110 215.116 C 7.508 215.357,9.571 215.359,253.188 215.359 L 498.864 215.359 499.215 215.099 C 499.991 214.525,499.938 216.163,499.938 192.761 C 499.938 169.405,499.986 170.871,499.208 170.316 L 498.820 170.040 253.911 170.025 C 119.211 170.017,8.745 170.047,8.432 170.091 M7.934 226.348 C 7.049 226.499,6.639 226.768,6.386 227.367 C 6.174 227.867,6.155 228.858,6.057 243.854 C 5.881 270.764,5.849 269.829,6.966 270.487 C 7.387 270.735,7.611 270.735,253.052 270.735 L 498.716 270.735 499.170 270.389 C 499.420 270.198,499.695 269.919,499.781 269.768 C 499.906 269.550,499.938 265.184,499.938 248.488 L 499.938 227.483 499.682 227.140 C 499.541 226.951,499.272 226.682,499.083 226.541 L 498.740 226.285 253.623 226.268 C 118.808 226.259,8.248 226.295,7.934 226.348 M7.819 281.844 C 7.031 281.946,6.762 282.069,6.339 282.521 L 6.036 282.846 5.937 287.282 C 5.882 289.722,5.751 313.509,5.646 340.142 C 5.540 366.774,5.403 400.326,5.341 414.701 C 5.096 471.467,5.041 466.361,5.913 466.932 C 6.248 467.152,11.057 467.159,152.363 467.159 L 298.467 467.159 298.818 466.900 C 299.010 466.757,299.252 466.478,299.354 466.279 C 299.519 465.959,299.541 455.521,299.541 374.534 L 299.541 283.151 299.288 282.721 C 299.149 282.484,298.842 282.177,298.605 282.038 L 298.175 281.785 153.340 281.770 C 73.681 281.762,8.196 281.795,7.819 281.844 M313.136 281.839 C 311.458 281.915,311.107 282.039,310.767 282.674 C 310.464 283.241,310.507 465.924,310.810 466.387 C 310.930 466.571,311.179 466.820,311.363 466.940 C 311.915 467.302,498.501 467.340,499.093 466.979 C 499.311 466.845,499.591 466.583,499.714 466.395 C 500.082 465.833,500.125 283.594,499.758 282.763 C 499.576 282.353,499.393 282.157,499.043 281.999 C 498.572 281.785,317.699 281.630,313.136 281.839 " stroke="none" fill="#000000" fill-rule="evenodd"></path></g></svg>